<svg width="371" height="512" viewBox="0 0 371 512" fill="none" xmlns="http://www.w3.org/2000/svg">
<path fill-rule="evenodd" clip-rule="evenodd" d="M0 185.426C0 83.182 83.182 0 185.427 0C287.671 0 370.852 83.182 370.854 185.426C370.854 312.314 204.915 498.593 197.85 506.461C191.226 513.839 179.64 513.852 173.004 506.461C165.939 498.593 0 312.314 0 185.426ZM33.392 185.428C33.392 272.512 129.58 403.391 185.427 469.729C241.288 403.37 337.461 272.515 337.462 185.427C337.462 101.594 269.26 33.392 185.427 33.392C101.594 33.392 33.392 101.594 33.392 185.428ZM92.135 185.427C92.135 133.985 133.985 92.134 185.427 92.134C236.868 92.134 278.718 133.985 278.718 185.427C278.718 236.869 236.868 278.72 185.427 278.72C133.986 278.72 92.135 236.869 92.135 185.427ZM125.527 185.427C125.527 218.457 152.397 245.328 185.427 245.328C218.456 245.328 245.327 218.457 245.327 185.427C245.327 152.397 218.456 125.526 185.427 125.526C152.398 125.526 125.527 152.397 125.527 185.427Z" fill="black"/>
</svg>
