<svg width="705" height="305" viewBox="0 0 705 305" fill="none" xmlns="http://www.w3.org/2000/svg">
<path fill-rule="evenodd" clip-rule="evenodd" d="M138.252 23.5849C149.554 10.3469 168.463 0.643919 184.226 0.00192105C185.52 -0.0490738 186.669 0.920927 186.813 2.22693C188.641 18.8929 182.598 37.4989 170.647 51.9969C159.292 65.7269 142.665 74.2539 127.252 74.2539C126.17 74.2529 125.084 74.2109 124.02 74.1279C122.843 74.0369 121.891 73.1339 121.736 71.9639C119.264 53.2639 128.647 34.7119 138.252 23.5849ZM31.9839 265.939C3.46998 224.767 -12.9221 156.864 12.8628 112.119C26.4229 88.5349 51.0188 73.6429 77.0488 73.2599C77.3079 73.2549 77.5708 73.2519 77.8379 73.2519C89.033 73.2519 99.6079 77.4479 108.938 81.1509L108.945 81.1534C115.918 83.9204 121.941 86.3099 126.583 86.3099C130.715 86.3099 136.706 83.9479 143.642 81.2129C153.69 77.2509 166.197 72.3199 179.253 72.3199C180.925 72.3199 182.59 72.4009 184.203 72.5619C195.319 73.0399 222.929 77.0129 240.943 103.375C241.323 103.931 241.463 104.619 241.329 105.28C241.195 105.942 240.8 106.521 240.233 106.886L239.989 107.038C234.755 110.276 208.657 128.141 208.992 161.877C209.353 203.401 243.695 218.636 247.61 220.237L247.648 220.253C247.697 220.274 247.769 220.304 247.793 220.315C248.954 220.848 249.526 222.17 249.121 223.381L249.035 223.652C246.908 230.466 240.604 248.297 228.037 266.662L228.035 266.665L228.034 266.667C215.991 284.254 202.342 304.189 180.112 304.603C169.749 304.797 162.726 301.759 155.916 298.813L155.859 298.788L155.855 298.786C148.928 295.789 141.765 292.689 130.541 292.689C118.741 292.689 111.218 295.894 103.944 298.994L103.936 298.997C97.4595 301.755 90.76 304.608 81.491 304.978C81.1089 304.993 80.7358 305 80.3638 305C60.627 305 46.2168 286.523 31.9839 265.939ZM610.412 302.679C620.432 302.679 629.17 293.941 629.17 283.921V240.113H641.695C649.211 240.113 654.22 235.102 654.22 227.588V102.466H504.039V227.589C504.039 235.104 509.049 240.114 516.564 240.114H529.09V283.922C529.09 293.942 537.826 302.68 547.848 302.68C557.867 302.68 566.604 293.942 566.604 283.922V240.114H591.655V283.922C591.654 293.941 600.392 302.679 610.412 302.679ZM704.26 208.831C704.26 218.852 695.524 227.589 685.504 227.589C675.482 227.589 666.746 218.851 666.746 208.831V121.216C666.746 111.249 675.483 102.466 685.504 102.466C695.524 102.466 704.26 111.249 704.26 121.216V208.831ZM472.756 227.589C482.777 227.589 491.514 218.852 491.514 208.831V121.216C491.514 111.249 482.778 102.466 472.756 102.466C462.736 102.466 454 111.249 454 121.216V208.831C454 218.851 462.736 227.589 472.756 227.589ZM630.453 4.89C632.957 2.36999 636.685 2.36999 639.189 4.89C641.695 7.39599 641.695 11.115 639.189 13.62L622.937 29.873C628.173 33.369 632.923 37.647 637.05 42.54C646.935 54.255 653.242 69.505 654.107 86.027C654.111 86.1028 654.117 86.1782 654.123 86.2535C654.13 86.3492 654.138 86.4448 654.142 86.541C654.193 87.666 654.22 88.797 654.22 89.932H504.039C504.039 88.797 504.064 87.666 504.117 86.541C504.123 86.4195 504.133 86.2989 504.141 86.178C504.145 86.1278 504.148 86.0775 504.15 86.027C505.017 69.505 511.322 54.256 521.207 42.539C525.336 37.646 530.084 33.368 535.32 29.872L519.07 13.619C516.564 11.115 516.564 7.39599 519.07 4.89C521.574 2.36999 525.3 2.36999 527.806 4.89L544.604 21.633L545.381 22.407C555.341 17.419 566.509 14.928 578.945 14.904L579.037 14.903L579.129 14.902H579.131L579.21 14.9028C579.244 14.9034 579.279 14.904 579.313 14.904C591.75 14.928 602.918 17.419 612.879 22.407L613.654 21.633L630.453 4.89ZM538.441 58.68C538.441 63.862 542.642 68.063 547.824 68.063C553.006 68.063 557.207 63.862 557.207 58.68C557.207 53.498 553.006 49.297 547.824 49.297C542.642 49.297 538.441 53.498 538.441 58.68ZM601.052 58.68C601.052 63.862 605.253 68.063 610.435 68.063C615.617 68.063 619.818 63.862 619.818 58.68C619.818 53.498 615.617 49.297 610.435 49.297C605.253 49.297 601.052 53.498 601.052 58.68Z" fill="#D5D5D5"/>
</svg>
